Coordinates
version=1
nRows=38
nColumns=12
inDegrees=yes

Units are S.I. units (second, meters, Newtons, ...)
Angles are in degrees

endheader
time	SC_y	SC_z	SC_x	AC_y	AC_z	AC_x	GH_y	GH_z	GH_yy	EL_x	PS_y
       0.0              -16.62           15.5          62.37          57.31          4.564         -19.42         -67.43          25.43          106.9          84.71          114.7
    0.0381              -16.62           15.5          62.37          57.32          4.564         -19.41         -67.43          25.43          106.9           84.7          114.7
    0.0762              -16.62           15.5          62.36          57.32          4.564         -19.41         -67.43          25.43          106.9           84.7          114.7
    0.1143              -16.62           15.5          62.36          57.32          4.564         -19.41         -67.43          25.43          106.9          84.69          114.7
    0.1524              -16.62           15.5          62.36          57.32          4.564          -19.4         -67.43          25.43          106.9          84.69          114.7
    0.1905              -16.62          15.51          62.36          57.32          4.564          -19.4         -67.43          25.43          106.9          84.68          114.7
    0.2286              -16.62          15.51          62.35          57.33          4.564          -19.4         -67.43          25.43          106.9          84.68          114.7
    0.2667              -16.62          15.51          62.35          57.33          4.565         -19.39         -67.43          25.43          106.9          84.67          114.7
    0.3048              -16.62          15.51          62.35          57.33          4.565         -19.39         -67.42          25.43          106.9          84.66          114.7
    0.3429              -16.63          15.51          62.34          57.33          4.565         -19.38         -67.42          25.43          106.9          84.66          114.7
     0.381              -16.63          15.51          62.34          57.34          4.565         -19.38         -67.42          25.43          107.0          84.65          114.7
    0.4191              -16.63          15.51          62.34          57.34          4.566         -19.37         -67.42          25.43          107.0          84.64          114.7
    0.4572              -16.63          15.51          62.33          57.35          4.566         -19.37         -67.42          25.43          107.0          84.63          114.7
    0.4953              -16.63          15.51          62.33          57.35          4.566         -19.36         -67.42          25.43          107.0          84.62          114.7
    0.5334              -16.63          15.51          62.32          57.35          4.567         -19.36         -67.42          25.43          107.0          84.61          114.7
    0.5715              -16.64          15.52          62.32          57.36          4.567         -19.35         -67.42          25.43          107.0           84.6          114.7
    0.6096              -16.64          15.52          62.31          57.36          4.567         -19.34         -67.42          25.43          107.0          84.58          114.7
    0.6477              -16.64          15.52           62.3          57.37          4.568         -19.33         -67.42          25.44          107.1          84.57          114.7
    0.6858              -16.64          15.52           62.3          57.38          4.568         -19.32         -67.42          25.44          107.1          84.55          114.7
    0.7239              -16.64          15.52          62.29          57.38          4.569         -19.31         -67.42          25.44          107.1          84.54          114.7
     0.762              -16.65          15.53          62.28          57.39          4.569          -19.3         -67.42          25.44          107.1          84.52          114.7
    0.8001              -16.65          15.53          62.27           57.4           4.57         -19.29         -67.42          25.44          107.2           84.5          114.7
    0.8382              -16.65          15.53          62.26          57.41           4.57         -19.27         -67.41          25.44          107.2          84.48          114.7
    0.8763              -16.66          15.54          62.25          57.42          4.571         -19.26         -67.41          25.44          107.2          84.45          114.7
    0.9144              -16.66          15.54          62.24          57.43          4.572         -19.24         -67.41          25.44          107.3          84.42          114.7
    0.9525              -16.67          15.54          62.22          57.44          4.573         -19.22         -67.41          25.44          107.3          84.39          114.7
    0.9906              -16.67          15.55          62.21          57.45          4.574          -19.2         -67.41          25.45          107.4          84.36          114.7
     1.029              -16.68          15.55          62.19          57.47          4.575         -19.18         -67.41          25.45          107.4          84.32          114.7
     1.067              -16.69          15.56          62.17          57.49          4.576         -19.15          -67.4          25.45          107.5          84.28          114.6
     1.105              -16.69          15.57          62.15          57.51          4.578         -19.12          -67.4          25.45          107.6          84.23          114.6
     1.143               -16.7          15.57          62.12          57.53          4.579         -19.09          -67.4          25.46          107.6          84.17          114.6
     1.181              -16.71          15.58          62.09          57.56          4.581         -19.05         -67.39          25.46          107.7           84.1          114.6
     1.219              -16.73          15.59          62.06          57.59          4.584          -19.0         -67.39          25.46          107.8          84.03          114.6
     1.257              -16.74           15.6          62.02          57.62          4.586         -18.95         -67.39          25.47          108.0          83.94          114.6
     1.295              -16.76          15.62          61.97          57.66          4.589         -18.88         -67.38          25.48          108.1          83.84          114.6
     1.333              -16.78          15.63          61.92          57.71          4.593         -18.81         -67.37          25.48          108.3          83.72          114.5
     1.372               -16.8          15.65          61.85          57.77          4.597         -18.72         -67.37          25.49          108.5          83.57          114.5
      1.41              -16.83          15.68          61.77          57.84          4.602         -18.61         -67.36           25.5          108.7           83.4          114.5
